<?xml version="1.0" encoding="UTF-8"?>
<svg xmlns="http://www.w3.org/2000/svg" xmlns:xlink="http://www.w3.org/1999/xlink" viewBox="0 0 789 600">
  <defs>
    <style>
      .cls-1, .cls-2, .cls-3, .cls-4 {
        fill: #fff;
      }

      .cls-5 {
        stroke: #b97b54;
      }

      .cls-5, .cls-6, .cls-7, .cls-2, .cls-8, .cls-9, .cls-3, .cls-4, .cls-10 {
        stroke-miterlimit: 10;
      }

      .cls-5, .cls-11 {
        fill: #b97b54;
      }

      .cls-6 {
        opacity: .8;
        stroke-linecap: round;
        stroke-width: 8px;
      }

      .cls-6, .cls-2, .cls-4 {
        stroke: #fff;
      }

      .cls-6, .cls-12, .cls-13 {
        fill: none;
      }

      .cls-7 {
        fill: #7d7f82;
        stroke: #7d7f82;
      }

      .cls-14 {
        fill: #ee7c00;
      }

      .cls-15 {
        fill: #ee9a00;
      }

      .cls-16 {
        fill: url(#linear-gradient);
        mix-blend-mode: multiply;
        opacity: .3;
      }

      .cls-2, .cls-13 {
        opacity: .2;
      }

      .cls-17 {
        fill: #b30000;
      }

      .cls-8 {
        stroke: #7b4c35;
      }

      .cls-8, .cls-18 {
        fill: #7b4c35;
      }

      .cls-12 {
        isolation: isolate;
      }

      .cls-9 {
        fill: silver;
        stroke: silver;
      }

      .cls-3 {
        stroke: #000;
      }

      .cls-4 {
        opacity: .26;
      }

      .cls-10 {
        fill: #979797;
        stroke: #979797;
      }
    </style>
    <linearGradient id="linear-gradient" x1="238.8" y1="387.71" x2="650.29" y2="387.71" gradientTransform="translate(-111.85 -16.01) rotate(-3.13) scale(1.05 1.17) skewX(10.11)" gradientUnits="userSpaceOnUse">
      <stop offset="0" stop-color="#000"/>
      <stop offset=".95" stop-color="#fff"/>
    </linearGradient>
  </defs>
  <g class="cls-12">
    <g id="Layer_1" data-name="Layer 1">
      <path class="cls-3" d="m305.06,238.34c-60.39,99.2-62.43,191.27-62.49,197.56,0,0,86.14,44.91,216.91,46.8,120.88,1.75,204.04-45.91,207.95-48.19-.02-.34-.04-.58-.04-.58,0,0-5.58-94.81-69.67-205.45-58.41-100.82-138.71-146.79-144.7-150.12-5.76,3.66-82.93,53.92-147.23,158.8-.24.4-.49.79-.73,1.19Z"/>
      <path class="cls-3" d="m324.92,243.99c-52.35,86-54.12,165.81-54.18,171.26,0,0,74.68,38.93,188.03,40.57,104.79,1.52,176.88-39.8,180.27-41.78-.02-.3-.03-.5-.03-.5,0,0-4.84-82.19-60.4-178.1-50.64-87.4-120.25-127.25-125.44-130.14-4.99,3.17-71.89,46.74-127.63,137.66-.21.34-.42.69-.63,1.03Z"/>
      <path class="cls-3" d="m349.09,250.88c-42.6,69.99-44.04,134.94-44.09,139.37,0,0,60.77,31.68,153.03,33.02,85.28,1.23,143.95-32.39,146.71-34-.01-.24-.02-.41-.02-.41,0,0-3.94-66.89-49.15-144.94-41.21-71.13-97.86-103.56-102.08-105.91-4.06,2.58-58.51,38.04-103.87,112.03-.17.28-.34.56-.51.84Z"/>
      <g>
        <circle class="cls-1" cx="453.46" cy="286.95" r="52"/>
        <path d="m453.46,235.45c28.4,0,51.5,23.1,51.5,51.5s-23.1,51.5-51.5,51.5-51.5-23.1-51.5-51.5,23.1-51.5,51.5-51.5m0-1c-28.99,0-52.5,23.51-52.5,52.5s23.51,52.5,52.5,52.5,52.5-23.51,52.5-52.5-23.51-52.5-52.5-52.5h0Z"/>
      </g>
      <g>
        <path class="cls-1" d="m454.76,324.73c-20.76,0-37.66-17-37.66-37.89s16.89-37.89,37.66-37.89,37.66,17,37.66,37.89-16.89,37.89-37.66,37.89Z"/>
        <path d="m454.76,249.45c20.49,0,37.16,16.77,37.16,37.39s-16.67,37.39-37.16,37.39-37.16-16.77-37.16-37.39,16.67-37.39,37.16-37.39m0-1c-21.07,0-38.16,17.19-38.16,38.39s17.08,38.39,38.16,38.39,38.16-17.19,38.16-38.39-17.08-38.39-38.16-38.39h0Z"/>
      </g>
    </g>
    <g id="color_layer" data-name="color layer">
      <path class="cls-5" d="m305.06,238.34c-60.39,99.2-62.43,191.27-62.49,197.56,0,0,86.14,44.91,216.91,46.8,120.88,1.75,204.04-45.91,207.95-48.19-.02-.34-.04-.58-.04-.58,0,0-5.58-94.81-69.67-205.45-58.41-100.82-138.71-146.79-144.7-150.12-5.76,3.66-82.93,53.92-147.23,158.8-.24.4-.49.79-.73,1.19Z"/>
      <path class="cls-9" d="m324.92,243.99c-52.35,86-54.12,165.81-54.18,171.26,0,0,74.68,38.93,188.03,40.57,104.79,1.52,176.88-39.8,180.27-41.78-.02-.3-.03-.5-.03-.5,0,0-4.84-82.19-60.4-178.1-50.64-87.4-120.25-127.25-125.44-130.14-4.99,3.17-71.89,46.74-127.63,137.66-.21.34-.42.69-.63,1.03Z"/>
      <path class="cls-10" d="m349.09,250.88c-42.6,69.99-44.04,134.94-44.09,139.37,0,0,60.77,31.68,153.03,33.02,85.28,1.23,143.95-32.39,146.71-34-.01-.24-.02-.41-.02-.41,0,0-3.94-66.89-49.15-144.94-41.21-71.13-97.86-103.56-102.08-105.91-4.06,2.58-58.51,38.04-103.87,112.03-.17.28-.34.56-.51.84Z"/>
      <g>
        <circle class="cls-11" cx="453.46" cy="286.95" r="52"/>
        <path class="cls-11" d="m453.46,235.45c28.4,0,51.5,23.1,51.5,51.5s-23.1,51.5-51.5,51.5-51.5-23.1-51.5-51.5,23.1-51.5,51.5-51.5m0-1c-28.99,0-52.5,23.51-52.5,52.5s23.51,52.5,52.5,52.5,52.5-23.51,52.5-52.5-23.51-52.5-52.5-52.5h0Z"/>
      </g>
      <g>
        <path class="cls-15" d="m454.76,324.73c-20.76,0-37.66-17-37.66-37.89s16.89-37.89,37.66-37.89,37.66,17,37.66,37.89-16.89,37.89-37.66,37.89Z"/>
        <path d="m454.76,249.45c20.49,0,37.16,16.77,37.16,37.39s-16.67,37.39-37.16,37.39-37.16-16.77-37.16-37.39,16.67-37.39,37.16-37.39m0-1c-21.07,0-38.16,17.19-38.16,38.39s17.08,38.39,38.16,38.39,38.16-17.19,38.16-38.39-17.08-38.39-38.16-38.39h0Z"/>
      </g>
    </g>
    <g id="Layer_3" data-name="Layer 3">
      <path class="cls-8" d="m584.9,227.87c61.73,105.2,67.1,195.35,67.1,195.35,0,0,0,.04,0,.1l15.29,11.05c.24-.14-1.53-1.66-1.42-1.72-.02-.34,1.42-.28,1.42-.28,0,0-6.97-94.74-70.32-204.96-57.73-100.44-137.1-146.23-143.01-149.54-.05.03-.11.07-.17.11v12.05c22.38,14.04,84.1,57.72,131.11,137.84Z"/>
      <path class="cls-8" d="m322.05,249.03c57.69-97.78,128.62-143.82,128.62-143.82,0,0,.03-.02.08-.05l2.08-17.27c-.22-.13-.66,1.99-.76,1.93-.27.17-.87-1-.87-1,0,0-73.95,49.43-134.99,150.83-55.62,92.4-56.98,176.68-57.01,182.91.05.02.11.06.17.09l9.8-5.58c1.3-24.28,8.93-93.56,52.87-168.04Z"/>
      <path class="cls-8" d="m665.28,434.35l-11.41-6.38c-24.81,12.87-99.71,40.81-197.51,43.05-.61,3.77-.42,7.9-1.07,11.68,39.42-.87,72.4-1.93,102.5-8.5,61.74-13.48,103.37-37.23,107.5-39.64,0-.06,0-.14-.01-.22Z"/>
      <path class="cls-7" d="m568.47,236.33c53.99,91.74,58.69,170.36,58.69,170.36,0,0,.01.2.03.48-.02.01-.06.04-.09.05l12.2,6.79c1-8-8.24-87.86-60.26-178.09-50.49-87.59-119.91-127.52-125.09-130.41-.04.03-.1.06-.15.1v10.51c19.57,12.24,73.56,50.34,114.68,120.21Z"/>
      <path class="cls-7" d="m342.18,242.92c-.19.31-.38.61-.57.92-42.78,68.71-48.45,132.98-49.2,148.91l11.71-3.72c.32-10.69,3.98-72.87,44.85-139.59.17-.28.35-.57.52-.85,41.89-67.89,91.39-103.71,103.31-111.72v-12.8c-16.9,11.64-67.44,49.98-110.61,118.83Z"/>
      <path class="cls-8" d="m242.79,435.26c-.03,1.11,0,.58,0,1,0,0,82.86,41.34,212.5,46.5v-12.23c-107.42-3.62-181.51-39.33-195.85-46.77l-16.65,11.5Z"/>
      <path class="cls-7" d="m638.79,414.2l-19.12-7.8c-21.61,11.56-73.15,30.23-161.58,36.68-.29,3.07,1.73,13.21,1.4,16.29,108.75-7.86,181.27-39.03,186.6-42.21-4.29,2.04-7.28-2.9-7.29-2.96Z"/>
      <path class="cls-7" d="m269.4,416.04c-.03,1.11,0,.58,0,1,0,0,74.46,34.99,189.39,40.16l-1-15c-95.23-3.62-160.92-30.22-173.63-37.66l-14.76,11.5Z"/>
      <g>
        <path class="cls-18" d="m452.19,338.94c-28.67,0-52-23.33-52-52,0-12.19,4.27-23.94,12.05-33.27-1.25,7.99-1.94,18.73.93,27.68,7.1,22.07,34.7,31.33,54.84,36.39,5.15,1.29,11.9,2.78,18.34,2.78,2.1,0,4.09-.16,5.92-.47-9.93,12.03-24.47,18.91-40.09,18.91Z"/>
        <path class="cls-18" d="m411.47,255.41c-1.07,7.81-1.47,17.72,1.22,26.08,7.18,22.3,34.94,31.64,55.2,36.72,5.18,1.3,11.96,2.79,18.47,2.79,1.64,0,3.2-.1,4.69-.28-9.81,11.29-23.82,17.72-38.85,17.72-28.4,0-51.5-23.1-51.5-51.5,0-11.46,3.81-22.53,10.79-31.53m1.54-3.42c-8.29,9.28-13.33,21.52-13.33,34.94,0,28.99,23.51,52.5,52.5,52.5,16.79,0,31.73-7.89,41.34-20.16-2.3.51-4.72.73-7.17.73-6.3,0-12.83-1.41-18.22-2.76-20.12-5.05-47.42-14.08-54.49-36.06-2.84-8.84-2.29-19.66-.63-29.19h0Z"/>
      </g>
      <g>
        <path class="cls-14" d="m455.32,323.45c-20.76,0-37.66-17-37.66-37.89s16.89-37.89,37.66-37.89,37.66,17,37.66,37.89-16.89,37.89-37.66,37.89Z"/>
        <path class="cls-14" d="m455.32,248.18c20.49,0,37.16,16.77,37.16,37.39s-16.67,37.39-37.16,37.39-37.16-16.77-37.16-37.39,16.67-37.39,37.16-37.39m0-1c-21.07,0-38.16,17.19-38.16,38.39s17.08,38.39,38.16,38.39,38.16-17.19,38.16-38.39-17.08-38.39-38.16-38.39h0Z"/>
      </g>
    </g>
    <g id="Layer_4" data-name="Layer 4">
      <g>
        <path class="cls-17" d="m435.78,318.58c-12.27-6.62-19.89-19.41-19.89-33.41,0-20.89,16.89-37.89,37.66-37.89,8.86,0,17.46,3.16,24.23,8.9,5,14.55-4.6,31.95-8.97,38.77-4.53,7.07-16.79,23.49-33.03,23.63Z"/>
        <path class="cls-17" d="m453.55,247.79c8.69,0,17.13,3.08,23.8,8.69,4.82,14.32-4.64,31.47-8.96,38.21-4.47,6.98-16.56,23.17-32.49,23.4-12.04-6.55-19.51-19.13-19.51-32.9,0-20.62,16.67-37.39,37.16-37.39m0-1c-21.07,0-38.16,17.19-38.16,38.39,0,14.69,8.21,27.45,20.26,33.91,14.31-.05,26.36-12.59,33.58-23.86,6.87-10.73,13.48-26.45,8.97-39.33-6.65-5.67-15.25-9.1-24.66-9.1h0Z"/>
      </g>
      <path class="cls-4" d="m581.02,230.44c60.14,101.51,65.37,188.5,65.37,188.5,0,0,0,.04,0,.09l14.89,10.66c.24-.13-1.49-1.6-1.38-1.66-.02-.33,1.38-.27,1.38-.27,0,0-6.79-91.42-68.51-197.77-56.24-96.92-133.56-141.1-139.33-144.3-.05.03-.11.07-.17.11v11.63c21.8,13.55,81.93,55.7,127.73,133.01Z"/>
      <path class="cls-4" d="m563.62,237.54c52.18,87.2,56.72,161.92,56.72,161.92,0,0,0,.03,0,.08l12.92,9.16c.2-.12-1.3-1.37-1.2-1.43-.02-.28,1.2-.23,1.2-.23,0,0-5.89-78.53-59.44-169.88-48.8-83.25-115.89-121.2-120.89-123.95-.04.03-.1.06-.15.09v9.99c18.92,11.64,71.09,47.84,110.83,114.25Z"/>
      <path class="cls-4" d="m461.95,463.85c-119.36-.73-197.57-41.47-197.57-41.47,0,0-.04-.02-.09-.04l-17,7.36c0,.27,2.16-.46,2.16-.33.3.15-.49,1.34-.49,1.34,0,0,82.87,41.71,207.24,43.58,113.34,1.71,191.88-42.31,197.66-45.63,0-.06,0-.13,0-.2l-10.09-6.05c-23.09,11.84-90.93,42.02-181.83,41.46Z"/>
      <path class="cls-4" d="m462.28,438.21c-101.87-.77-168.36-35.76-168.36-35.76,0,0-.03-.02-.07-.04l-14.55,6.28c0,.23,1.85-.39,1.85-.28.25.13-.43,1.15-.43,1.15,0,0,70.46,35.82,176.6,37.58,96.73,1.61,164.04-35.98,168.99-38.82,0-.05,0-.11,0-.17l-8.57-5.19c-19.78,10.11-77.88,35.86-155.46,35.27Z"/>
      <path class="cls-2" d="m317.45,247.73c59.71-99.35,132.5-146.48,132.5-146.48,0,0,.03-.02.08-.05l2.26-17.47c-.23-.13-.69,2.01-.79,1.95-.27.18-.88-1-.88-1,0,0-75.91,50.59-139.05,153.62-57.55,93.89-59.63,179.11-59.71,185.42.05.02.11.06.17.08l10.06-5.72c1.53-24.56,9.89-94.68,55.36-170.34Z"/>
      <path class="cls-2" d="m340.52,253.66c49.28-83.75,109.94-123.13,109.94-123.13,0,0,.03-.02.07-.04l1.76-14.79c-.19-.11-.56,1.7-.65,1.65-.23.15-.74-.86-.74-.86,0,0-63.24,42.29-115.38,129.13-47.51,79.14-48.59,151.36-48.61,156.71.04.02.1.05.14.07l8.39-4.77c1.09-20.81,7.55-80.18,45.08-143.96Z"/>
      <g class="cls-13">
        <path class="cls-1" d="m453.38,338.51c-5.09,0-10.17-.76-15.1-2.25-11.67-3.54-21.67-11.02-28.35-21.18,9.69,4.67,18.7,7.14,26.17,7.14.2,0,.39,0,.59,0,23.18-.4,40.05-24.12,50.73-41.94,3.82-6.37,8.24-14.59,9.24-22.56,8.64,12.99,11,28.9,6.47,43.85-6.69,22.09-26.68,36.94-49.75,36.94Z"/>
        <path class="cls-1" d="m496.96,259.11c7.96,12.66,10.05,27.93,5.69,42.32-3.27,10.79-9.8,20-18.87,26.63-8.78,6.42-19.58,9.95-30.4,9.95-5.05,0-10.08-.75-14.95-2.23-10.97-3.32-20.45-10.17-27.04-19.46,9.2,4.25,17.5,6.39,24.71,6.39.2,0,.4,0,.6,0,23.43-.4,40.41-24.26,51.15-42.18,3.85-6.43,7.85-13.9,9.12-21.42m-.66-2.8c-.62,8.39-5.34,17.09-9.31,23.71-10.66,17.79-27.23,41.3-50.31,41.69-.19,0-.39,0-.58,0-9.13,0-19.08-3.61-27.54-7.87,6.48,10.62,16.73,19,29.58,22.89,5.07,1.54,10.2,2.27,15.24,2.27,22.53,0,43.35-14.61,50.23-37.29,4.87-16.07,1.65-32.66-7.31-45.41h0Z"/>
      </g>
      <path class="cls-6" d="m440.96,257.19c-2.2,1.23-4.31,2.71-6.26,4.32-4.13,3.41-8.02,7.67-9.69,13.2-1.39,4.6-1.1,9.62-.8,14.48"/>
    </g>
    <g id="Layer_6" data-name="Layer 6">
      <path class="cls-16" d="m673.29,433.7s-69.28,26.3-98,38c-27,11-114,11-114,11l-60-4-77-14-43-11-43-19,57-42,338-74,7.76.22,22.24,73.78,10,41Z"/>
    </g>
  </g>
</svg>